<svg width="34" height="34" viewBox="0 0 34 34" fill="none" xmlns="http://www.w3.org/2000/svg">
<path d="M5.66669 12.9902C5.66669 12.1727 5.66669 11.7639 5.81893 11.3964C5.97117 11.0288 6.2602 10.7398 6.83826 10.1618L8.74511 8.2549C9.32317 7.67684 9.61221 7.38781 9.97975 7.23557C10.3473 7.08333 10.756 7.08333 11.5735 7.08333H22.4265C23.244 7.08333 23.6528 7.08333 24.0203 7.23557C24.3878 7.38781 24.6769 7.67684 25.2549 8.2549L27.1618 10.1618C27.7398 10.7398 28.0289 11.0288 28.1811 11.3964C28.3334 11.7639 28.3334 12.1727 28.3334 12.9902V24.3333C28.3334 26.2189 28.3334 27.1618 27.7476 27.7475C27.1618 28.3333 26.219 28.3333 24.3334 28.3333H9.66668C7.78107 28.3333 6.83826 28.3333 6.25247 27.7475C5.66669 27.1618 5.66669 26.2189 5.66669 24.3333V12.9902Z" stroke="#CCD2E3" stroke-width="2"/>
<path d="M5.66669 14.1667H28.3334" stroke="#CCD2E3" stroke-width="2" stroke-linecap="round"/>
<path d="M21.0136 12.75L12.9859 12.75C12.6519 12.75 12.485 12.75 12.3813 12.8537C12.2775 12.9575 12.2775 13.1244 12.2775 13.4583L12.2775 19.3611C12.2775 20.4446 12.2775 20.9863 12.4176 21.2775C12.7304 21.9275 13.4817 22.2387 14.1625 22.0002C14.4674 21.8934 14.8505 21.5104 15.6166 20.7442C15.9715 20.3894 16.1489 20.212 16.3375 20.1122C16.7518 19.8931 17.2477 19.8931 17.6619 20.1122C17.8506 20.212 18.028 20.3894 18.3829 20.7442C19.149 21.5104 19.5321 21.8934 19.837 22.0002C20.5178 22.2387 21.2691 21.9275 21.5819 21.2775C21.722 20.9863 21.722 20.4446 21.722 19.3611V13.4583C21.722 13.1244 21.722 12.9575 21.6182 12.8537C21.5145 12.75 21.3476 12.75 21.0136 12.75Z" fill="#CCD2E3"/>
</svg>
