<svg width="29" height="29" viewBox="0 0 29 29" fill="none" xmlns="http://www.w3.org/2000/svg">
<path d="M14.5 25.375C13.0719 25.375 11.6577 25.0937 10.3383 24.5472C9.0189 24.0007 7.82005 23.1996 6.81021 22.1898C5.80038 21.1799 4.99933 19.9811 4.45281 18.6617C3.90629 17.3423 3.625 15.9281 3.625 14.5C3.625 13.0719 3.90629 11.6577 4.45281 10.3383C4.99933 9.0189 5.80038 7.82005 6.81021 6.81021C7.82005 5.80038 9.0189 4.99933 10.3383 4.45281C11.6577 3.90629 13.0719 3.625 14.5 3.625C15.9281 3.625 17.3423 3.90629 18.6617 4.45281C19.9811 4.99933 21.18 5.80038 22.1898 6.81022C23.1996 7.82005 24.0007 9.0189 24.5472 10.3383C25.0937 11.6577 25.375 13.0719 25.375 14.5C25.375 15.9281 25.0937 17.3423 24.5472 18.6617C24.0007 19.9811 23.1996 21.18 22.1898 22.1898C21.1799 23.1996 19.9811 24.0007 18.6617 24.5472C17.3423 25.0937 15.9281 25.375 14.5 25.375L14.5 25.375Z" stroke="#CCD2E3" stroke-width="2" stroke-linecap="round"/>
<path d="M10.875 10.875L18.125 18.125" stroke="#CCD2E3" stroke-width="2" stroke-linecap="round"/>
<path d="M18.125 10.875L10.875 18.125" stroke="#CCD2E3" stroke-width="2" stroke-linecap="round"/>
</svg>
