<svg width="36" height="34" viewBox="0 0 36 34" fill="none" xmlns="http://www.w3.org/2000/svg">
<path d="M21.75 29.75V22.25C21.75 21.6977 21.3023 21.25 20.75 21.25H15.25C14.6977 21.25 14.25 21.6977 14.25 22.25V29.75" stroke="#CCD2E3" stroke-width="2" stroke-linecap="round" stroke-linejoin="round"/>
<path d="M7.5 15.5833V25.75C7.5 27.6356 7.5 28.5784 8.08579 29.1642C8.67157 29.75 9.61438 29.75 11.5 29.75H24.5C26.3856 29.75 27.3284 29.75 27.9142 29.1642C28.5 28.5784 28.5 27.6356 28.5 25.75V15.5833" stroke="#CCD2E3" stroke-width="2"/>
<path d="M7.10606 5.73822C7.29543 5.02283 7.39011 4.66514 7.65977 4.45757C7.92944 4.25 8.29945 4.25 9.03947 4.25H26.9605C27.7006 4.25 28.0706 4.25 28.3402 4.45757C28.6099 4.66514 28.7046 5.02283 28.8939 5.73821L30.8351 13.0715C31.1407 14.226 31.2935 14.8033 30.9933 15.1933C30.6931 15.5833 30.0959 15.5833 28.9017 15.5833H28.7262C27.2492 15.5833 26.5107 15.5833 25.977 15.1826C25.9195 15.1394 25.8643 15.0931 25.8117 15.0439C25.3244 14.5881 25.196 13.8608 24.9393 12.4063V12.4063C24.8701 12.0137 24.8354 11.8174 24.7608 11.8093C24.7536 11.8086 24.7464 11.8086 24.7392 11.8093C24.6646 11.8174 24.6299 12.0137 24.5607 12.4063L24.4562 12.9983C24.3002 13.8821 24.2222 14.324 24.0073 14.6603C23.7873 15.0046 23.4671 15.2733 23.0898 15.4301C22.7212 15.5833 22.2725 15.5833 21.375 15.5833V15.5833C20.4775 15.5833 20.0288 15.5833 19.6602 15.4301C19.2829 15.2733 18.9627 15.0046 18.7427 14.6603C18.5278 14.324 18.4498 13.8821 18.2938 12.9983L18.1893 12.4063C18.1201 12.0137 18.0854 11.8174 18.0108 11.8093C18.0036 11.8086 17.9964 11.8086 17.9892 11.8093C17.9146 11.8174 17.8799 12.0137 17.8107 12.4063L17.7062 12.9983C17.5502 13.8821 17.4722 14.324 17.2573 14.6603C17.0373 15.0046 16.7171 15.2733 16.3398 15.4301C15.9712 15.5833 15.5225 15.5833 14.625 15.5833V15.5833C13.7275 15.5833 13.2788 15.5833 12.9102 15.4301C12.5329 15.2733 12.2127 15.0046 11.9927 14.6603C11.7778 14.324 11.6998 13.8821 11.5438 12.9983L11.4393 12.4063C11.3701 12.0137 11.3354 11.8174 11.2608 11.8093C11.2536 11.8086 11.2464 11.8086 11.2392 11.8093C11.1646 11.8174 11.1299 12.0137 11.0607 12.4063V12.4063C10.804 13.8608 10.6756 14.5881 10.1883 15.0439C10.1357 15.0931 10.0805 15.1394 10.023 15.1826C9.48934 15.5833 8.75084 15.5833 7.27384 15.5833H7.09829C5.90406 15.5833 5.30694 15.5833 5.00672 15.1933C4.70649 14.8033 4.85929 14.226 5.16488 13.0715L7.10606 5.73822Z" stroke="#CCD2E3" stroke-width="2"/>
</svg>
