<svg width="27" height="26" viewBox="0 0 27 26" fill="none" xmlns="http://www.w3.org/2000/svg">
<path fill-rule="evenodd" clip-rule="evenodd" d="M3.12868 4.12868C2.25 5.00736 2.25 6.42157 2.25 9.25V16.75C2.25 19.5784 2.25 20.9926 3.12868 21.8713C4.00736 22.75 5.42157 22.75 8.25 22.75H20.4167C21.6582 22.75 22.279 22.75 22.7761 22.5691C23.6094 22.2658 24.2658 21.6094 24.5691 20.7761C24.75 20.279 24.75 19.6582 24.75 18.4167H17.875C16.0801 18.4167 14.625 16.9616 14.625 15.1667C14.625 13.3717 16.0801 11.9167 17.875 11.9167H24.75V9.25C24.75 6.42157 24.75 5.00736 23.8713 4.12868C22.9926 3.25 21.5784 3.25 18.75 3.25H8.25C5.42157 3.25 4.00736 3.25 3.12868 4.12868ZM7.875 7.66667C7.32272 7.66667 6.875 8.11438 6.875 8.66667C6.875 9.21895 7.32272 9.66667 7.875 9.66667H11.25C11.8023 9.66667 12.25 9.21895 12.25 8.66667C12.25 8.11438 11.8023 7.66667 11.25 7.66667H7.875Z" fill="#CCD2E3"/>
<path d="M19.125 15.1667H18" stroke="white" stroke-width="2" stroke-linecap="round"/>
</svg>
