<svg width="106" height="91" viewBox="0 0 106 91" fill="none" xmlns="http://www.w3.org/2000/svg">
<path d="M8.83334 45.5C8.83334 38.4125 8.83334 34.8687 10.6085 32.2292C11.7714 30.4999 13.4441 29.064 15.4583 28.0656C18.533 26.5417 22.6609 26.5417 30.9167 26.5417H75.0834C83.3391 26.5417 87.467 26.5417 90.5417 28.0656C92.5559 29.064 94.2286 30.4999 95.3915 32.2292C97.1667 34.8687 97.1667 38.4125 97.1667 45.5C97.1667 52.5875 97.1667 56.1312 95.3915 58.7708C94.2286 60.5 92.5559 61.936 90.5417 62.9344C87.467 64.4583 83.3391 64.4583 75.0834 64.4583H30.9167C22.6609 64.4583 18.533 64.4583 15.4583 62.9344C13.4441 61.936 11.7714 60.5 10.6085 58.7708C8.83334 56.1312 8.83334 52.5875 8.83334 45.5Z" stroke="#CCD2E3" stroke-opacity="0.42" stroke-width="6"/>
<path d="M83.9167 15.1667C83.9167 10.9785 79.9619 7.58334 75.0833 7.58334H30.9167C26.0382 7.58334 22.0833 10.9785 22.0833 15.1667" stroke="#CCD2E3" stroke-opacity="0.6" stroke-width="2"/>
<path d="M83.9167 75.8333C83.9167 80.0215 79.9619 83.4167 75.0833 83.4167H30.9167C26.0382 83.4167 22.0833 80.0215 22.0833 75.8333" stroke="#BEC5D7" stroke-opacity="0.54" stroke-width="2"/>
<rect x="23.0833" y="38.9167" width="24.5" height="5.58333" rx="2" stroke="#CCD2E3" stroke-opacity="0.6" stroke-width="2"/>
</svg>
